<?xml version="1.0" encoding="UTF-8" standalone="no"?>
<!DOCTYPE svg PUBLIC "-//W3C//DTD SVG 1.1//EN" "http://www.w3.org/Graphics/SVG/1.1/DTD/svg11.dtd">
<svg width="100%" height="100%" viewBox="0 0 300 300" version="1.1" xmlns="http://www.w3.org/2000/svg" xmlns:xlink="http://www.w3.org/1999/xlink" xml:space="preserve" xmlns:serif="http://www.serif.com/" style="fill-rule:evenodd;clip-rule:evenodd;stroke-linejoin:round;stroke-miterlimit:2;">
    <g transform="matrix(0.1,0,0,-0.1,0,300)">
        <g transform="matrix(0.559402,0,0,0.559402,-59.9715,247.957)">
            <path d="M2516,2787C2454,2752 2435,2719 2435,2645C2435,2577 2447,2554 2504,2519L2533,2502L2491,2481C2425,2447 2382,2379 2318,2203C2294,2135 2280,2113 2241,2078C2179,2022 2107,1996 2033,2002C1984,2006 1972,2012 1943,2043C1915,2074 1910,2087 1910,2127C1910,2187 1928,2222 1963,2234C2006,2249 2018,2230 1998,2177C1977,2120 1993,2086 2050,2069C2123,2047 2214,2091 2256,2170C2280,2215 2281,2331 2258,2375C2194,2495 2023,2532 1872,2458C1774,2410 1663,2265 1631,2145C1619,2099 1585,2062 1525,2031C1467,2000 1449,2005 1501,2038C1555,2073 1597,2121 1623,2179C1639,2215 1641,2237 1637,2287C1630,2358 1614,2393 1573,2431C1523,2478 1482,2493 1400,2492C1225,2492 1085,2386 1009,2198C963,2084 907,2043 860,2090C834,2116 834,2114 871,2223C888,2274 903,2326 905,2339C917,2451 761,2571 599,2574C541,2575 529,2572 496,2546C475,2531 450,2504 439,2486C416,2448 414,2377 435,2336C455,2298 456,2300 410,2198C372,2113 371,2107 385,2079C394,2063 411,2048 424,2044C472,2032 489,2048 538,2146C570,2210 590,2240 600,2238C627,2233 622,2190 586,2105C521,1953 506,1861 535,1780C560,1708 624,1669 715,1668C790,1667 866,1705 935,1777C988,1831 992,1834 1003,1816C1060,1722 1154,1668 1258,1668C1295,1668 1338,1670 1355,1674C1408,1684 1504,1738 1562,1789C1593,1817 1623,1840 1628,1840C1634,1840 1648,1824 1661,1804C1697,1746 1723,1722 1784,1694C1883,1649 2020,1662 2122,1727C2143,1739 2162,1750 2165,1750C2169,1750 2185,1763 2203,1780C2221,1796 2240,1810 2246,1810C2252,1810 2265,1792 2275,1769C2332,1643 2475,1631 2597,1743C2655,1797 2687,1843 2749,1967C2807,2083 2811,2110 2774,2139C2736,2169 2717,2165 2665,2120C2601,2065 2560,2068 2560,2129C2560,2139 2574,2189 2590,2241C2636,2382 2638,2412 2606,2460L2580,2500L2613,2500C2631,2500 2666,2510 2690,2523C2802,2579 2809,2743 2702,2794C2653,2818 2563,2815 2516,2787ZM2699,2766C2777,2725 2762,2581 2675,2544C2606,2516 2510,2533 2476,2581C2438,2636 2469,2738 2533,2765C2575,2783 2664,2784 2699,2766ZM716,2519C799,2488 861,2433 875,2378C879,2361 870,2318 846,2249C803,2127 801,2098 835,2065C873,2026 933,2030 975,2074C992,2092 1016,2134 1028,2167C1057,2247 1118,2339 1168,2378C1242,2437 1316,2464 1400,2464C1505,2464 1560,2431 1595,2348C1631,2261 1595,2147 1512,2083C1440,2029 1354,2020 1242,2055C1221,2062 1219,2060 1222,2035C1224,2018 1237,1998 1253,1986C1295,1955 1445,1956 1514,1988C1597,2026 1646,2072 1659,2126C1701,2293 1819,2421 1962,2456C2130,2497 2262,2403 2247,2253C2240,2184 2210,2137 2156,2111C2104,2085 2059,2084 2029,2108L2007,2127L2029,2173C2055,2227 2050,2257 2013,2271C1931,2302 1857,2201 1881,2089C1907,1969 2054,1933 2200,2011C2282,2055 2310,2092 2356,2218C2405,2351 2458,2436 2505,2456C2550,2474 2556,2474 2580,2450C2608,2422 2605,2388 2565,2260C2525,2131 2521,2089 2550,2060C2585,2025 2649,2043 2690,2100C2715,2135 2749,2139 2768,2110C2779,2093 2774,2077 2734,1997C2627,1784 2540,1699 2428,1697C2344,1696 2289,1760 2288,1859L2288,1909L2220,1840C2059,1680 1845,1648 1726,1766C1693,1799 1665,1851 1655,1898L1648,1931L1621,1893C1581,1838 1510,1778 1443,1742C1256,1643 1066,1704 1018,1878C1011,1901 1003,1920 1000,1920C997,1920 989,1906 981,1889C960,1841 864,1744 813,1719C684,1657 550,1726 550,1854C550,1919 561,1959 617,2099C668,2226 667,2244 608,2279L577,2299L525,2188C467,2061 451,2045 418,2077L397,2099L447,2207L498,2315L475,2335C452,2354 445,2383 448,2437C451,2469 506,2528 544,2539C583,2551 650,2543 716,2519Z" style="fill-rule:nonzero;"/>
        </g>
        <g transform="matrix(0.559402,0,0,0.559402,-59.9715,247.957)">
            <path d="M1304,2290C1252,2269 1235,2205 1271,2169C1288,2152 1300,2149 1333,2153C1404,2163 1439,2224 1400,2273C1378,2301 1345,2307 1304,2290ZM1375,2230C1375,2213 1367,2201 1348,2193C1315,2177 1290,2186 1290,2214C1290,2245 1310,2261 1345,2258C1370,2256 1375,2250 1375,2230Z" style="fill-rule:nonzero;"/>
        </g>
        <g transform="matrix(0.542043,1.32762e-16,-1.32762e-16,0.542043,1429.07,967.719)">
            <path d="M2146,1620C2093,1603 2050,1544 2050,1487C2050,1452 2078,1402 2112,1377C2140,1356 2141,1353 2135,1300C2131,1260 2133,1240 2143,1226C2157,1208 2153,1204 2082,1168C1972,1113 1892,1019 1858,907C1851,885 1829,849 1809,828C1768,785 1730,779 1691,809C1668,827 1667,831 1673,921C1679,1023 1710,1136 1742,1169C1755,1184 1773,1190 1803,1190C1896,1190 1954,1270 1955,1400C1955,1461 1951,1482 1932,1511C1881,1594 1757,1609 1636,1549C1554,1508 1454,1418 1385,1321C1337,1255 1310,1234 1310,1264C1310,1294 1234,1426 1193,1466C1049,1608 780,1629 571,1513C404,1420 309,1239 339,1070C355,982 385,932 443,896C566,820 733,873 771,1001C785,1047 771,1086 733,1103C678,1128 695,1241 760,1275C802,1297 831,1294 863,1265C933,1199 870,993 736,851C629,737 466,728 416,834C393,882 374,891 318,879C257,866 191,803 161,730C141,685 138,663 142,595C148,480 190,412 285,362C330,338 345,335 440,336C525,336 556,341 605,360C746,415 844,512 926,679C987,804 985,797 1020,924C1036,984 1052,1035 1054,1038C1057,1040 1064,1039 1070,1035C1090,1023 1073,922 1021,745C993,652 985,562 1002,531C1022,493 1073,468 1129,468C1221,469 1274,520 1300,630C1306,660 1327,735 1345,795C1398,967 1431,1040 1457,1040C1475,1040 1474,1032 1444,954C1391,814 1370,727 1370,648C1370,569 1392,491 1426,451C1463,406 1538,386 1610,401C1640,407 1676,418 1690,425C1717,439 1783,500 1813,538C1835,566 1846,563 1868,525C1921,431 2014,389 2146,397C2306,406 2474,538 2591,746C2615,789 2615,832 2592,853C2560,882 2526,874 2479,825C2423,766 2348,724 2285,714C2258,710 2231,707 2225,709C2220,711 2210,713 2203,714C2168,720 2183,730 2226,730C2416,730 2549,974 2441,1122C2407,1167 2404,1186 2421,1224C2434,1252 2449,1260 2500,1267C2565,1277 2620,1335 2620,1395C2620,1458 2570,1522 2511,1535C2496,1538 2478,1551 2471,1563C2465,1575 2444,1596 2425,1609C2396,1628 2383,1631 2343,1626C2275,1617 2239,1616 2205,1623C2189,1626 2162,1625 2146,1620ZM2400,1595C2436,1576 2462,1529 2458,1489C2455,1454 2474,1449 2478,1485C2483,1521 2515,1517 2556,1476C2584,1448 2590,1434 2590,1400C2590,1365 2584,1352 2555,1323C2521,1289 2516,1288 2470,1293C2423,1299 2421,1298 2415,1271L2409,1243L2287,1281C2220,1302 2166,1322 2166,1327C2167,1331 2171,1345 2174,1357C2180,1375 2176,1381 2156,1386C2115,1396 2080,1445 2080,1492C2080,1524 2087,1539 2114,1566C2148,1600 2177,1607 2228,1594C2244,1589 2249,1583 2244,1571C2230,1537 2228,1520 2238,1520C2243,1520 2251,1531 2254,1545C2261,1574 2313,1610 2348,1610C2361,1610 2384,1603 2400,1595ZM1021,1540C1126,1504 1188,1453 1243,1358C1272,1309 1300,1219 1300,1178C1300,1163 1305,1150 1310,1150C1316,1150 1320,1156 1320,1164C1320,1192 1431,1346 1502,1417C1598,1514 1686,1560 1774,1560C1884,1560 1935,1509 1935,1400C1934,1330 1917,1286 1872,1238C1845,1208 1821,1203 1789,1220C1762,1235 1734,1218 1710,1171C1660,1071 1626,860 1652,810C1702,717 1833,762 1875,886C1947,1098 2141,1226 2316,1175C2384,1156 2415,1131 2441,1075C2466,1021 2464,965 2436,905C2379,783 2247,723 2126,765C2065,786 2046,774 2076,733C2117,678 2226,665 2332,701C2408,726 2443,749 2496,808C2530,845 2541,852 2562,847C2603,836 2602,814 2559,742C2470,597 2367,495 2260,448C2203,422 2085,413 2025,430C1946,452 1860,550 1860,618C1860,650 1848,645 1824,602C1787,538 1720,470 1667,443C1625,422 1606,419 1553,422C1498,425 1486,430 1455,460C1371,541 1372,686 1456,913C1504,1041 1509,1074 1484,1084C1428,1106 1369,988 1295,708C1257,564 1234,518 1190,500C1146,482 1063,492 1037,519C1005,551 1010,628 1055,780C1099,931 1112,1058 1085,1080C1073,1090 1064,1091 1052,1083C1033,1072 1032,1069 994,925C904,590 729,391 494,357C315,331 182,420 163,579C147,715 244,860 351,860C385,860 388,857 394,826C412,730 551,701 672,767C819,847 953,1117 910,1242C879,1329 790,1342 719,1272C653,1206 660,1096 731,1071C766,1059 767,1042 739,983C702,907 589,862 505,890C414,920 359,1005 359,1119C358,1314 470,1460 674,1532C779,1568 926,1572 1021,1540ZM2281,1263C2346,1243 2400,1223 2400,1218C2400,1207 2388,1208 2340,1225C2309,1236 2299,1237 2303,1227C2305,1221 2325,1211 2348,1206C2374,1201 2390,1192 2390,1183C2390,1172 2384,1170 2373,1175C2363,1179 2307,1196 2248,1214C2185,1232 2140,1250 2140,1258C2140,1273 2139,1273 2190,1255C2239,1238 2254,1236 2246,1249C2243,1254 2220,1263 2195,1269C2170,1275 2150,1285 2150,1290C2150,1304 2148,1304 2281,1263Z" style="fill-rule:nonzero;"/>
        </g>
        <g transform="matrix(0.542043,1.32762e-16,-1.32762e-16,0.542043,1429.07,967.719)">
            <path d="M2308,1575C2281,1560 2254,1523 2263,1514C2265,1511 2282,1523 2299,1541C2323,1564 2337,1571 2356,1567C2371,1564 2379,1567 2377,1574C2371,1591 2338,1591 2308,1575Z" style="fill-rule:nonzero;"/>
        </g>
        <g transform="matrix(0.542043,1.32762e-16,-1.32762e-16,0.542043,1429.07,967.719)">
            <path d="M2131,994C2069,942 2104,858 2182,874C2228,883 2260,917 2260,956C2260,1019 2186,1041 2131,994ZM2228,962C2235,916 2173,881 2142,912C2112,942 2146,993 2194,988C2218,986 2226,979 2228,962Z" style="fill-rule:nonzero;"/>
        </g>
    </g>
</svg>
